<svg xmlns="http://www.w3.org/2000/svg" viewBox="0 0 304.89 304.9"><g id="Layer_2" data-name="Layer 2"><g id="Layer_1-2" data-name="Layer 1"><path d="M152.44,0C68.39,0,0,68.4,0,152.45S68.39,304.9,152.44,304.9s152.45-68.39,152.45-152.45S236.5,0,152.44,0Zm67.75,152.45a180.42,180.42,0,0,1-12.52,66,191.36,191.36,0,0,0-49.62-8v-62h62c0,1.35.11,2.68.11,4Zm-135.38-4h62v61.91a191.25,191.25,0,0,0-49.67,8A180.07,180.07,0,0,1,84.7,152.45c0-1.34.08-2.67.11-4Zm12.41-62a191.79,191.79,0,0,0,49.63,8v42.78H85.41a179.56,179.56,0,0,1,11.81-50.8Zm-23,50.8H12A140.71,140.71,0,0,1,44.85,61.09a180.77,180.77,0,0,0,41.76,21.8,190.64,190.64,0,0,0-12.44,54.35ZM158.05,18.91c19.06,14.78,34.46,34.5,45.15,57.17a180.52,180.52,0,0,1-45.15,7.17Zm-11.2,64.34a180.37,180.37,0,0,1-45.15-7.17c10.69-22.67,26.08-42.38,45.15-57.17Zm0,138.4V286c-19.07-14.78-34.46-34.52-45.15-57.18a180.3,180.3,0,0,1,45.15-7.17Zm11.2,0a180.52,180.52,0,0,1,45.15,7.17c-10.69,22.67-26.09,42.39-45.15,57.18Zm0-84.41V94.46a191.71,191.71,0,0,0,49.63-8,179.07,179.07,0,0,1,11.8,50.78H158.05Zm60.22-54.38A180.53,180.53,0,0,0,260,61.1a140.56,140.56,0,0,1,32.81,76.14H230.72a190.84,190.84,0,0,0-12.44-54.38Zm34.12-30.12a168.91,168.91,0,0,1-38.5,19.84C202.87,48.78,187,27.91,167.33,12a140.92,140.92,0,0,1,85.06,40.74ZM137.57,12C117.88,27.92,102,48.79,91,72.59A169.31,169.31,0,0,1,52.5,52.75,140.94,140.94,0,0,1,137.57,12ZM11.3,148.43H73.62c0,1.35-.12,2.68-.12,4a191.31,191.31,0,0,0,13.07,69.46,180.31,180.31,0,0,0-41.8,21.81A140.62,140.62,0,0,1,11.2,152.45c0-1.34.06-2.68.1-4ZM52.52,252.17A169.44,169.44,0,0,1,91,232.33c11,23.8,26.87,44.65,46.56,60.57A140.85,140.85,0,0,1,52.52,252.17Zm114.82,40.74C187,277,202.88,256.13,213.9,232.31a169.45,169.45,0,0,1,38.49,19.84A140.94,140.94,0,0,1,167.34,292.91ZM260,243.82A179.59,179.59,0,0,0,218.29,222a191.3,191.3,0,0,0,13.11-69.57c0-1.34-.09-2.67-.11-4h62.3c0,1.33.11,2.67.11,4A140.57,140.57,0,0,1,260,243.82Z"/></g></g></svg>